# xmcd
#
# Track frame offsets:
#	150
#	97678
#	129452
#	175314
#	240592
#
# Disc length: 3278 seconds
#
# Revision: 1
# Processed by: cddbd v1.5.2PL0 Copyright (c) Steve Scherf et al.
# Submitted via: audiograbber 1.83.01
#
DISCID=330ccc05
DTITLE=Grateful Dead - 69-04-12 Student Union Ballroom, Salt Lake City Ut
DYEAR=1900
DGENRE=
TTITLE0=Dark Star
TTITLE1=St Stephen
TTITLE2=The Eleven
TTITLE3=Turn On Your Lovelight
TTITLE4=Feedback
EXTD=
EXTT0=
EXTT1=
EXTT2=
EXTT3=
EXTT4=
PLAYORDER=
